<?xml version="1.0" encoding="UTF-8"?>
<svg xmlns="http://www.w3.org/2000/svg" width="1200" height="700" viewBox="0 0 1200 700" shape-rendering="geometricPrecision">
  <defs>
    <linearGradient id="wallGrad" x1="0" y1="0" x2="0" y2="1">
      <stop offset="0%" stop-color="#f8c86e"/>
      <stop offset="100%" stop-color="#e49b4e"/>
    </linearGradient>
    <linearGradient id="windowGrad" x1="0" y1="0" x2="0" y2="1">
      <stop offset="0%" stop-color="#cde8ff" stop-opacity="0.9"/>
      <stop offset="100%" stop-color="#7fb2e8" stop-opacity="0.85"/>
    </linearGradient>
    <linearGradient id="tableGrad" x1="0" y1="0" x2="0" y2="1">
      <stop offset="0%" stop-color="#b36a3e"/>
      <stop offset="100%" stop-color="#8e4f2d"/>
    </linearGradient>
    <linearGradient id="cabinetGrad" x1="0" y1="0" x2="0" y2="1">
      <stop offset="0%" stop-color="#fbe8b3"/>
      <stop offset="100%" stop-color="#f2cf86"/>
    </linearGradient>
    <linearGradient id="fridgeGrad" x1="0" y1="0" x2="0" y2="1">
      <stop offset="0%" stop-color="#d7e4ee"/>
      <stop offset="100%" stop-color="#b8c9d8"/>
    </linearGradient>
  </defs>

  <rect x="0" y="0" width="1200" height="700" fill="url(#wallGrad)"/>
  <rect x="0" y="470" width="1200" height="230" fill="#3b3f48"/>

  <rect x="120" y="140" width="220" height="410" rx="10" fill="url(#fridgeGrad)"/>
  <rect x="120" y="140" width="220" height="60" rx="10" fill="#c9d7e3"/>
  <rect x="128" y="200" width="204" height="350" rx="8" fill="#dbe8f2"/>
  <rect x="330" y="140" width="10" height="410" rx="5" fill="#a9bac8"/>
  <line x1="130" y1="340" x2="330" y2="340" stroke="#9fb1c2" stroke-width="5"/>
  <rect x="310" y="210" width="8" height="120" rx="4" fill="#8aa0b4"/>
  <rect x="310" y="360" width="8" height="120" rx="4" fill="#8aa0b4"/>

  <rect x="380" y="205" width="520" height="95" rx="12" fill="url(#cabinetGrad)"/>
  <rect x="380" y="295" width="520" height="10" rx="5" fill="#e5c071"/>
  <rect x="380" y="205" width="8" height="95" rx="4" fill="#d7b06a"/>
  <rect x="510" y="205" width="6" height="95" rx="3" fill="#d7b06a"/>
  <rect x="640" y="205" width="6" height="95" rx="3" fill="#d7b06a"/>
  <rect x="770" y="205" width="6" height="95" rx="3" fill="#d7b06a"/>
  <rect x="392" y="218" width="106" height="60" rx="10" fill="#f6dc98"/>
  <rect x="522" y="218" width="106" height="60" rx="10" fill="#f6dc98"/>
  <rect x="652" y="218" width="106" height="60" rx="10" fill="#f6dc98"/>
  <rect x="782" y="218" width="106" height="60" rx="10" fill="#f6dc98"/>
  <circle cx="445" cy="258" r="6" fill="#c6933f"/>
  <circle cx="575" cy="258" r="6" fill="#c6933f"/>
  <circle cx="705" cy="258" r="6" fill="#c6933f"/>
  <circle cx="835" cy="258" r="6" fill="#c6933f"/>

  <rect x="520" y="308" width="240" height="30" rx="6" fill="#cfd3d8"/>
  <rect x="532" y="318" width="216" height="10" rx="4" fill="#b3b9c0"/>
  <rect x="560" y="338" width="160" height="10" rx="4" fill="#9fb1c5"/>

  <rect x="508" y="350" width="260" height="55" rx="8" fill="#44413a"/>
  <rect x="498" y="404" width="280" height="22" rx="6" fill="#3a3832"/>
  <rect x="535" y="395" width="210" height="10" rx="5" fill="#6ab3e6"/>

  <rect x="552" y="420" width="240" height="55" rx="10" fill="#2f2a28"/>
  <rect x="720" y="410" width="10" height="14" rx="4" fill="#6ab3e6"/>

  <rect x="370" y="428" width="560" height="92" rx="10" fill="#9b5a31"/>
  <rect x="370" y="416" width="560" height="12" rx="6" fill="#b26d3f"/>
  <rect x="386" y="440" width="180" height="60" rx="10" fill="#b86d3b"/>
  <rect x="586" y="440" width="180" height="60" rx="10" fill="#b86d3b"/>
  <rect x="786" y="440" width="120" height="60" rx="10" fill="#b86d3b"/>
  <circle cx="470" cy="470" r="6" fill="#8d522c"/>
  <circle cx="670" cy="470" r="6" fill="#8d522c"/>
  <circle cx="840" cy="470" r="6" fill="#8d522c"/>

  <rect x="720" y="356" width="96" height="58" rx="12" fill="#2b2724"/>
  <rect x="728" y="362" width="80" height="26" rx="6" fill="#3f3a36"/>
  <rect x="734" y="390" width="68" height="10" rx="4" fill="#6ab3e6"/>
  <rect x="740" y="400" width="18" height="10" rx="3" fill="#1f1c1a"/>
  <rect x="764" y="400" width="18" height="10" rx="3" fill="#1f1c1a"/>
  <rect x="792" y="395" width="8" height="18" rx="3" fill="#c6933f"/>
  <rect x="814" y="382" width="10" height="10" rx="3" fill="#6ab3e6"/>

  <rect x="880" y="135" width="250" height="190" rx="12" fill="#f4f6fb"/>
  <rect x="892" y="148" width="226" height="160" rx="8" fill="url(#windowGrad)"/>
  <line x1="1005" y1="148" x2="1005" y2="308" stroke="#e8edf6" stroke-width="5"/>
  <line x1="892" y1="228" x2="1118" y2="228" stroke="#e8edf6" stroke-width="5"/>

  <rect x="120" y="470" width="960" height="180" rx="12" fill="url(#tableGrad)"/>
  <rect x="150" y="520" width="900" height="10" rx="5" fill="#8b4a2a"/>
</svg>